<svg width="15" height="15" viewBox="0 0 15 15" fill="none" xmlns="http://www.w3.org/2000/svg">
    <path
        d="M0.0148926 13.6327C0.470622 13.8606 0.899007 14.0018 1.30005 14.0565C1.71021 14.1112 2.0839 14.0793 2.42114 13.9608C2.7675 13.8423 3.08195 13.6965 3.3645 13.5233C3.64705 13.3593 3.89771 13.1633 4.11646 12.9354C4.34432 12.6984 4.54028 12.466 4.70435 12.2382C4.87752 12.0103 5.02336 11.787 5.14185 11.5682C5.25122 11.3313 5.33325 11.1581 5.38794 11.0487C5.44263 10.9302 5.46997 10.871 5.46997 10.871C5.97127 10.9895 6.41333 11.0305 6.79614 10.994C7.18807 10.9484 7.52531 10.8208 7.80786 10.6112C8.0813 10.4107 8.31828 10.1874 8.5188 9.94128C8.71932 9.68608 8.88794 9.41264 9.02466 9.12097C9.15226 8.82019 9.25708 8.53308 9.33911 8.25964C9.42114 7.97709 9.48039 7.70365 9.51685 7.43933C9.54419 7.17501 9.56242 6.97449 9.57153 6.83777C9.58065 6.70105 9.58521 6.63269 9.58521 6.63269C10.1594 6.74207 10.6653 6.74207 11.1028 6.63269C11.5494 6.52332 11.9231 6.30912 12.2239 5.99011C12.5247 5.66199 12.7844 5.30652 13.0032 4.92371C13.2219 4.54089 13.3951 4.13074 13.5227 3.69324C13.6594 3.25574 13.7642 2.83191 13.8372 2.42175C13.9192 2.0116 13.9648 1.61511 13.9739 1.2323C13.9921 0.849487 14.0012 0.562378 14.0012 0.370972C14.0103 0.179565 14.0149 0.0838623 14.0149 0.0838623C14.0149 0.0838623 13.9967 0.106649 13.9602 0.152222C13.9237 0.18868 13.8691 0.247925 13.7961 0.329956C13.7323 0.402873 13.6549 0.45756 13.5637 0.494019C13.4726 0.521362 13.3723 0.521362 13.2629 0.494019C12.8072 0.293498 12.3879 0.193237 12.0051 0.193237C11.6314 0.184123 11.2896 0.275269 10.9797 0.466675C10.679 0.658081 10.4055 0.876831 10.1594 1.12292C9.92244 1.36902 9.71737 1.64701 9.54419 1.95691C9.3619 2.26681 9.20695 2.57214 9.07935 2.87292C8.96086 3.17371 8.8606 3.46993 8.77856 3.7616C8.71476 4.04415 8.66463 4.25834 8.62817 4.40417C8.59172 4.55001 8.57349 4.62292 8.57349 4.62292C8.2089 4.55912 7.86711 4.56368 7.5481 4.6366C7.2382 4.70951 6.94653 4.85079 6.6731 5.06042C6.40877 5.26095 6.16724 5.4797 5.94849 5.71667C5.72974 5.95365 5.52922 6.20886 5.34692 6.4823C5.17375 6.74662 5.0188 7.00183 4.88208 7.24792C4.75448 7.49402 4.64966 7.731 4.56763 7.95886C4.4856 8.19584 4.42179 8.37358 4.37622 8.49207C4.33976 8.60144 4.32153 8.65613 4.32153 8.65613C3.92961 8.49207 3.56958 8.41459 3.24146 8.42371C2.92244 8.43282 2.63534 8.52397 2.38013 8.69714C2.13403 8.87032 1.91073 9.0754 1.71021 9.31238C1.50968 9.54024 1.33651 9.80001 1.19067 10.0917C1.04484 10.3833 0.921794 10.675 0.821533 10.9667C0.730387 11.2583 0.662028 11.55 0.616455 11.8417C0.561768 12.1425 0.525309 12.3885 0.50708 12.58C0.497965 12.7622 0.50708 12.8899 0.534424 12.9628C0.579997 13.1086 0.584554 13.2271 0.548096 13.3182C0.511637 13.4094 0.438721 13.4732 0.329346 13.5096C0.229085 13.5552 0.151611 13.5871 0.0969238 13.6053C0.0422363 13.6236 0.0148926 13.6327 0.0148926 13.6327ZM10.9797 2.07996C11.1985 1.90678 11.4081 1.77917 11.6086 1.69714C11.8092 1.61511 12.0051 1.58321 12.1965 1.60144C12.3971 1.61056 12.5566 1.66524 12.675 1.7655C12.8027 1.85665 12.8938 1.99337 12.9485 2.17566C12.9941 2.35795 13.0032 2.55847 12.9758 2.77722C12.9485 2.98686 12.8756 3.21928 12.7571 3.47449C12.6477 3.72058 12.511 3.953 12.3469 4.17175C12.1829 4.38139 11.9915 4.57279 11.7727 4.74597C11.5631 4.91003 11.3534 5.03308 11.1438 5.11511C10.9342 5.19714 10.7336 5.2336 10.5422 5.22449C10.3508 5.20626 10.1913 5.15157 10.0637 5.06042C9.94523 4.96016 9.85864 4.81889 9.80396 4.6366C9.74927 4.44519 9.7356 4.24467 9.76294 4.03503C9.7994 3.81628 9.87231 3.58386 9.98169 3.33777C10.1002 3.08256 10.2415 2.85014 10.4055 2.6405C10.5696 2.43087 10.761 2.24402 10.9797 2.07996ZM6.64575 6.44128C6.87362 6.29545 7.09237 6.19519 7.302 6.1405C7.51164 6.0767 7.7076 6.06303 7.88989 6.09949C8.09041 6.12683 8.24992 6.19519 8.36841 6.30457C8.4869 6.41394 8.56893 6.55977 8.6145 6.74207C8.66007 6.94259 8.66007 7.15222 8.6145 7.37097C8.57804 7.58061 8.49601 7.79936 8.36841 8.02722C8.24992 8.2642 8.10409 8.47839 7.93091 8.6698C7.75773 8.86121 7.56177 9.02983 7.34302 9.17566C7.11515 9.32149 6.8964 9.42631 6.68677 9.49011C6.47713 9.5448 6.28117 9.55847 6.09888 9.53113C5.90747 9.49467 5.75252 9.42175 5.63403 9.31238C5.51554 9.203 5.42896 9.05261 5.37427 8.86121C5.33781 8.67891 5.33781 8.48295 5.37427 8.27332C5.41073 8.05457 5.49276 7.8267 5.62036 7.58972C5.73885 7.35274 5.88468 7.13855 6.05786 6.94714C6.23104 6.75574 6.427 6.58712 6.64575 6.44128ZM2.59888 9.90027C2.82674 9.75444 3.04093 9.65417 3.24146 9.59949C3.45109 9.53569 3.65161 9.52201 3.84302 9.55847C4.03442 9.58582 4.18937 9.65417 4.30786 9.76355C4.42635 9.87292 4.50838 10.0188 4.55396 10.201C4.59953 10.3925 4.59953 10.5975 4.55396 10.8163C4.5175 11.0259 4.44002 11.2492 4.32153 11.4862C4.19393 11.7232 4.04354 11.9374 3.87036 12.1288C3.69718 12.3202 3.50122 12.4888 3.28247 12.6346C3.06372 12.7805 2.84953 12.8853 2.63989 12.9491C2.43026 13.0038 2.22974 13.0175 2.03833 12.9901C1.84692 12.9537 1.69198 12.8807 1.57349 12.7714C1.455 12.662 1.37297 12.5116 1.32739 12.3202C1.28182 12.1379 1.27726 11.9419 1.31372 11.7323C1.35018 11.5135 1.42765 11.2857 1.54614 11.0487C1.67375 10.8117 1.82414 10.5975 1.99731 10.4061C2.17961 10.2147 2.38013 10.0461 2.59888 9.90027Z"
        fill="#739E08" />
</svg>
    